# xmcd
#
# Track frame offsets:
#	150
#	17006
#	32747
#	47082
#	60448
#	79840
#	89922
#	106435
#	116366
#
# Disc length: 1732 seconds
#
# Revision: 0
# Processed by: cddbd v1.5.2PL0 Copyright (c) Steve Scherf et al.
# Submitted via: EasyCDDAExtractor 9.0.0.1
#
DISCID=6e06c209
DTITLE=Zgredybillies - Proszê Pani
DYEAR=2011
DGENRE=
TTITLE0=PROSZE PANI
TTITLE1=MUSKULARNY RIFF
TTITLE2=SZUBI DUBI (Love Song)
TTITLE3=CALE ZYCIE NA KREDYCIE
TTITLE4=KUPUJ KUPUJ.
TTITLE5=BIALA HOLOTA
TTITLE6=EKO TREND
TTITLE7=TEORIA I PRAKTYKA
TTITLE8=ROCKABILLY RULES OK.
EXTD=
EXTT0=
EXTT1=
EXTT2=
EXTT3=
EXTT4=
EXTT5=
EXTT6=
EXTT7=
EXTT8=
PLAYORDER=
